<?xml version="1.0" encoding="utf-8"?>
<!-- Generator: Adobe Illustrator 21.0.0, SVG Export Plug-In . SVG Version: 6.00 Build 0)  -->
<svg version="1.1" id="Layer_1" xmlns="http://www.w3.org/2000/svg" xmlns:xlink="http://www.w3.org/1999/xlink" x="0px" y="0px"
	 viewBox="0 0 280.3 388.5" style="enable-background:new 0 0 280.3 388.5;" xml:space="preserve">
<style type="text/css">
	.st0{fill:#FFFFFF;}
</style>
<title>Artboard 1</title>
<g>
	<path class="st0" d="M94.9,251.1l-49.8-28.7c-1.2,1.1-2.6,1.9-4.2,2.4v57.5c5.6,1.7,8.9,7.4,7.6,13.1l49.8,28.7
		c1.2-1.1,2.6-1.9,4.1-2.4v-57.5C97,262.5,93.7,256.8,94.9,251.1z"/>
	<path class="st0" d="M94.9,172.2l-49.8-28.7c-1.2,1.1-2.6,1.9-4.2,2.4v57.5c5.6,1.7,8.9,7.4,7.6,13.1l49.8,28.8
		c1.2-1.1,2.6-1.9,4.1-2.4v-57.5C97,183.6,93.7,177.8,94.9,172.2z"/>
	<path class="st0" d="M163.4,58.5c-0.4-1.6-0.4-3.2,0-4.8l-49.8-28.7c-2.1,1.9-4.8,3-7.6,3c-2.8,0-5.5-1.1-7.6-3L48.6,53.7
		c0.4,1.6,0.4,3.2,0,4.8l49.8,28.8c4.3-4,10.9-4,15.2,0L163.4,58.5z"/>
	<path class="st0" d="M109.4,106.3v57.5c1.5,0.5,3,1.3,4.2,2.4l49.8-28.8c-1.3-5.7,2-11.4,7.6-13.1l0-57.5c-1.5-0.5-3-1.3-4.1-2.4
		L117,93.2C118.3,98.8,115,104.6,109.4,106.3z"/>
	<path class="st0" d="M48.6,137.5l49.8,28.8c1.2-1.1,2.6-1.9,4.2-2.4v-57.5c-5.6-1.7-8.9-7.4-7.6-13.1L45.2,64.4
		c-1.2,1.1-2.6,1.9-4.2,2.4v57.5C46.6,126.1,49.9,131.8,48.6,137.5z"/>
	<path class="st0" d="M170.9,203.3l0-57.6c-1.5-0.5-3-1.3-4.1-2.4L117,172.1c1.3,5.7-2,11.4-7.6,13.1v57.6c1.5,0.5,3,1.3,4.1,2.4
		l24.9-14.4l24.9-14.4C162,210.7,165.3,205,170.9,203.3z"/>
	<path class="st0" d="M231.7,255.9c-0.2-0.8-0.3-1.6-0.3-2.4c0-0.8,0.1-1.6,0.3-2.4l-49.8-28.8c-4.3,4-10.9,4-15.1,0l-24.9,14.4
		L117,251.1c0.4,1.6,0.4,3.2,0,4.8l49.8,28.7c4.3-4,10.9-4,15.1,0L231.7,255.9z"/>
	<path class="st0" d="M185.3,290.6c1.3,5.7-2,11.4-7.6,13.1v57.5c1.5,0.5,3,1.3,4.2,2.4l49.8-28.8c-1.3-5.7,2-11.4,7.6-13.1v-57.5
		c-1.5-0.5-3-1.3-4.1-2.4L185.3,290.6z"/>
	<path class="st0" d="M163.3,290.5l-49.8-28.7c-1.2,1.1-2.6,1.9-4.2,2.4v57.6c4.7,1.4,7.9,5.8,7.9,10.7c0,0,0,0,0,0v0c0,0,0,0,0,0
		c0,0.8-0.1,1.6-0.2,2.4l49.8,28.7c1.2-1.1,2.6-1.9,4.2-2.4v-57.5C165.4,301.9,162,296.2,163.3,290.5z"/>
	<path d="M117.3,332.4C117.3,332.4,117.2,332.5,117.3,332.4C117.2,332.5,117.3,332.5,117.3,332.4L117.3,332.4z"/>
	<path d="M246.1,264.2c5.9-1.8,9.3-8.1,7.4-14.1c-1.8-5.9-8.1-9.3-14.1-7.4c-1.6,0.5-3.1,1.4-4.3,2.5l-49.8-28.7
		c1.3-5.7-2-11.4-7.6-13.1v-57.6c5.9-1.9,9.2-8.2,7.3-14.1c-1.1-3.5-3.8-6.2-7.3-7.3V66.8c5.9-1.8,9.3-8.1,7.4-14.1
		c-1.8-5.9-8.1-9.3-14.1-7.4c-1.6,0.5-3.1,1.4-4.3,2.5L117,19c1.4-6.1-2.4-12.1-8.5-13.5c-6.1-1.4-12.1,2.4-13.5,8.5
		c-0.4,1.7-0.4,3.4,0,5.1L45.2,47.8c-4.6-4.2-11.7-4-15.9,0.6c-4.2,4.6-4,11.7,0.6,15.9c1.2,1.2,2.7,2,4.3,2.5v57.5
		c-5.9,1.9-9.2,8.2-7.3,14.1c1.1,3.5,3.8,6.2,7.3,7.3v57.6c-5.9,1.9-9.2,8.2-7.3,14.1c1.1,3.5,3.8,6.2,7.3,7.3v57.5
		c-5.9,1.8-9.3,8.1-7.4,14.1c1.8,5.9,8.1,9.3,14.1,7.4c1.6-0.5,3.1-1.4,4.3-2.5L94.9,330c-1.5,6,2.2,12.1,8.2,13.5
		c3.7,0.9,7.6-0.1,10.4-2.8l49.8,28.7c-1.4,6.1,2.4,12.1,8.5,13.5c6.1,1.4,12.1-2.4,13.5-8.5c0.4-1.7,0.4-3.4,0-5.1l49.8-28.7
		c4.6,4.2,11.7,4,15.9-0.6c4.2-4.6,4-11.7-0.6-15.9c-1.2-1.2-2.7-2-4.3-2.5h0V264.2z M166.8,64.4c1.2,1.1,2.6,1.9,4.1,2.4l0,57.5
		c-5.6,1.7-8.9,7.4-7.6,13.1l-49.8,28.8c-1.2-1.1-2.6-1.9-4.2-2.4v-57.5c5.6-1.7,8.9-7.4,7.6-13.1L166.8,64.4z M163.3,216.4
		l-24.9,14.4l-24.9,14.4c-1.2-1.1-2.6-1.9-4.1-2.4v-57.6c5.6-1.7,8.9-7.4,7.6-13.1l49.8-28.7c1.2,1.1,2.6,1.9,4.1,2.4l0,57.6
		C165.3,205,162,210.7,163.3,216.4z M41,66.8c1.5-0.5,3-1.3,4.2-2.4l49.8,28.7c-1.3,5.7,2,11.4,7.6,13.1v57.5
		c-1.5,0.5-3,1.3-4.2,2.4l-49.8-28.8c1.3-5.7-2-11.4-7.6-13.1V66.8z M102.5,321.7c-1.5,0.5-3,1.3-4.1,2.4l-49.8-28.7
		c1.3-5.7-2-11.4-7.6-13.1v-57.5c1.5-0.5,3-1.3,4.2-2.4l49.8,28.7c-1.3,5.7,2,11.4,7.6,13.1V321.7z M102.5,242.8
		c-1.5,0.5-3,1.3-4.1,2.4l-49.8-28.8c1.3-5.7-2-11.4-7.6-13.1v-57.5c1.5-0.5,3-1.3,4.2-2.4l49.8,28.7c-1.3,5.7,2,11.4,7.6,13.1
		V242.8z M98.4,87.2L48.6,58.5c0.4-1.6,0.4-3.2,0-4.8l49.8-28.8c2.1,1.9,4.8,3,7.6,3c2.8,0,5.5-1.1,7.6-3l49.8,28.7
		c-0.4,1.6-0.4,3.2,0,4.8l-49.8,28.8C109.3,83.3,102.7,83.3,98.4,87.2z M170.9,361.2c-1.5,0.5-3,1.3-4.2,2.4L117,334.9
		c0.2-0.8,0.3-1.6,0.2-2.4c0.1-4.9-3.2-9.3-7.9-10.7v-57.6c1.5-0.5,3-1.3,4.2-2.4l49.8,28.7c-1.3,5.7,2,11.4,7.6,13.1V361.2z
		 M166.8,284.6L117,255.9c0.4-1.6,0.4-3.2,0-4.8l24.9-14.4l24.9-14.4c4.3,4,10.9,4,15.1,0l49.8,28.8c-0.2,0.8-0.3,1.6-0.3,2.4
		c0,0.8,0.1,1.6,0.3,2.4l-49.8,28.7C177.6,280.7,171,280.7,166.8,284.6z M239.3,321.7c-5.6,1.7-8.9,7.4-7.6,13.1l-49.8,28.8
		c-1.2-1.1-2.6-1.9-4.2-2.4v0v0v-57.5c5.6-1.7,8.9-7.4,7.6-13.1l49.8-28.7c1.2,1.1,2.6,1.9,4.1,2.4V321.7z"/>
</g>
</svg>
