<svg width="1500" height="450" xmlns="http://www.w3.org/2000/svg">
 <g>
  <title>background</title>
  <rect x="-1" y="-1" width="1502" height="452" id="canvas_background" fill="none"/>
 </g>

 <g>
  <title>Layer 1</title>
  <g id="svg_1">
   <g id="svg_2">
    <g id="svg_3">
     <path d="m274.8,63.60133l108.2,62.5c2.8,1.6 5.8,2.4 8.8,2.4c6.1,0 12,-3.2 15.3,-8.8c4.9,-8.4 2,-19.2 -6.5,-24.1l-105.5,-60.9c-6.8,-4.4 -16,-3.6 -22,2.4c-6.9,6.9 -6.9,18 0,24.9l1.7,1.6z" id="svg_4" fill="#4527a0"/>
     <path d="m186.2,59.90133l222.19999,128.3c2.80001,1.6 5.80001,2.4 8.80001,2.4c6.1,0 12,-3.2 15.3,-8.8c4.89999,-8.4 2,-19.2 -6.4,-24.1l-222.2,-128.3c-8.4,-4.9 -19.2,-2 -24.1,6.4c-4.9,8.4 -2,19.2 6.4,24.1z" id="svg_5" fill="#4527a0"/>
     <path d="m437.09999,231.80133c-3.3,5.7 -9.2,8.8 -15.3,8.8c-3,0 -6,-0.8 -8.8,-2.4l-76.5,-44.1c1.4,-6.3 -1.3,-13.1 -7.2,-16.5l-156.5,-90.4c-5.9,-3.4 -13.1,-2.4 -17.9,2l-50.9,-29.3c-8.4,-4.9 -11.3,-15.6 -6.5,-24.1c4.9,-8.4 15.6,-11.3 24.1,-6.4l309,178.3c8.4,4.8 11.3,15.6 6.5,24.1z" id="svg_6" fill="#4527a0"/>
     <path d="m433,276.80133c-3.3,5.7 -9.2,8.8 -15.3,8.8c-3,0 -6,-0.8 -8.80001,-2.4l-106.3,-61.4c1.2,-5.6 -1.3,-11.5 -6.5,-14.5l-98.2,-56.7c-5.19999,-3 -11.6,-2.2 -15.8,1.7l-94.4,-54.5c-8.4,-4.9 -11.3,-15.6 -6.4,-24.1c4.9,-8.4 15.6,-11.3 24.1,-6.4l46.2,26.7c-3.3,7.1 -0.7,15.6 6.2,19.5l156.5,90.4c2.4,1.4 5,2 7.6,2c4.80001,0 9.5,-2.3 12.4,-6.5l92.4,53.3c8.2,4.9 11.1,15.7 6.3,24.1l0.00001,0z" id="svg_7" fill="#4527a0"/>
     <path d="m420.5,317.00133c-1.2,2.1 -2.7,3.8 -4.5,5.1l-218,-127.5c-6.1,-3.6 -13.9,-1.8 -17.9,3.9l-92.4,-53.3c-8.40001,-4.9 -11.3,-15.6 -6.40001,-24.1c4.90001,-8.4 15.6,-11.3 24.1,-6.4l73.4,42.4c-2.69999,6.2 -0.3,13.6 5.7,17l98.20001,56.7c2.1,1.2 4.5,1.8 6.8,1.8c4.2,0 8.2,-1.9 10.8,-5.4l113.7,65.7c8.39999,4.9 11.3,15.7 6.5,24.1z" id="svg_8" fill="#4527a0"/>
     <path d="m401.39999,345.00133c-0.19999,2.4 -1,4.9 -2.3,7.1c-3.3,5.7 -9.2,8.8 -15.3,8.8c-3,0 -6,-0.8 -8.8,-2.4l-72.6,-41.9c1.4,-5.7 -1,-11.9 -6.39999,-15l-98.1,-56.6c-5.3,-3.1 -11.9,-2.1 -16.1,2l-94.1,-54.3c-8.4,-4.9 -11.3,-15.6 -6.4,-24.1c4.9,-8.4 15.6,-11.3 24.1,-6.4l72.5,41.8c-1,5.4 1.5,11.1 6.5,14l216.99999,127z" id="svg_9" fill="#4527a0"/>
     <path d="m371,373.70133c-0.3,9.6 -8.5,17 -18.10001,17l0,0c-2.8,0 -5.5,-0.7 -7.89999,-2.1l-31.4,-18.1c1.6,-6.4 -1.2,-13.3 -7.1,-16.8l-153,-88.3c-6,-3.4 -13.3,-2.4 -18,2.1l-47.8,-27.6c-8.4,-4.9 -11.3,-15.6 -6.4,-24.1c4.9,-8.4 15.6,-11.3 24.1,-6.4l73.2,42.3c-2.4,6.1 0,13.3 5.8,16.7l98.2,56.7c2.1,1.2 4.5,1.8 6.8,1.8c4,0 8,-1.8 10.6,-5.1l61.5,35.5c5.7,3.1 9.7,9.3 9.5,16.4z" id="svg_10" fill="#4527a0"/>
     <path d="m327,405.30133c-3.3,5.7 -9.2,8.8 -15.3,8.8c-3,0 -6,-0.8 -8.80001,-2.4l-215.19999,-124.2c-8.40001,-4.9 -11.3,-15.6 -6.40001,-24.1c4.90001,-8.4 15.6,-11.3 24.1,-6.4l26.7,15.4c-3.2,7 -0.5,15.4 6.3,19.3l153,88.3c2.4,1.4 5,2 7.60001,2c4.7,0 9.3,-2.2 12.3,-6.2l9.5,5.5c8.2,4.8 11,15.6 6.2,24z" id="svg_11" fill="#4527a0"/>
     <path d="m261.89999,394.90133l-156.69999,-90.5c-8.40001,-4.9 -19.20001,-2 -24.1,6.4c-4.9,8.4 -2,19.2 6.4,24.1l156.7,90.5c2.8,1.6 5.8,2.4 8.8,2.4c6.1,0 12,-3.2 15.3,-8.8c5,-8.5 2.1,-19.3 -6.4,-24.1l-0.00001,0z" id="svg_12" fill="#4527a0"/>
     <path d="m182,396.10133l-76.7,-44.3c-8.4,-4.9 -19.2,-2 -24.1,6.4c-4.90001,8.4 -2,19.2 6.4,24.1l76.7,44.3c2.8,1.6 5.8,2.4 8.8,2.4c6.1,0 12,-3.2 15.3,-8.8c4.9,-8.4 2,-19.2 -6.4,-24.1z" id="svg_13" fill="#4527a0"/>
     <path d="m506.2,389.80133c-3,5.1 -8.30001,8 -13.9,8c-2.7,0 -5.5,-0.7 -8,-2.2l-70.1,-40.7c-2.8,-1.6 -5,-4 -6.3,-6.7c1.7,0.8 3.6,1.1 5.4,1.1c4.7,0 9.2,-2.4 11.7,-6.7c3.5,-6 1.89999,-13.5 -3.4,-17.6c2.9,-0.1 6,0.6 8.7,2.1l70.09999,40.7c7.60001,4.5 10.2,14.3 5.80001,22z" id="svg_14" fill="#4527a0"/>
    </g>
   </g>
   <g id="svg_15">
    <path d="m707.5,255.20133c0,14.1 -2.70001,27.3 -8,39.7c-5.3,12.4 -12.60001,23.2 -21.8,32.3c-9.2,9.2 -20,16.4 -32.3,21.8c-12.4,5.3 -25.6,8 -39.7,8c-8.5,0 -17.1,-1.1 -25.6,-3.2l0,-54.7c3.79999,2.3 7.9,4 12.29999,5.2c4.4,1.2 8.8,1.8 13.3,1.8c7,0 13.6,-1.3 19.8,-4c6.2,-2.7 11.6,-6.3 16.3,-10.9c4.6,-4.6 8.3,-10 10.9,-16.2c2.7,-6.2 4,-12.7 4,-19.7l0,-153l50.8,0l0,152.9l0.00001,0z" id="svg_16" fill="#4527a0"/>
    <path d="m952.79999,255.20133c0,14.1 -2.7,27.3 -8,39.7c-5.29999,12.4 -12.6,23.2 -21.79999,32.3c-9.20001,9.2 -20,16.4 -32.4,21.8c-12.4,5.3 -25.6,8 -39.70001,8c-14.1,0 -27.29999,-2.7 -39.7,-8c-12.4,-5.3 -23.2,-12.6 -32.3,-21.8c-9.2,-9.2 -16.39999,-20 -21.79999,-32.3c-5.3,-12.4 -8,-25.6 -8,-39.7l0,-153l50.79999,0l0,153c0,7 1.3,13.6 4,19.7c2.70001,6.2 6.3,11.5 10.9,16.2c4.6,4.6 10,8.3 16.3,10.9c6.2,2.7 12.8,4 19.8,4c7,0 13.6,-1.3 19.8,-4c6.2,-2.7 11.6,-6.3 16.3,-10.9c4.6,-4.6 8.3,-10 10.9,-16.2c2.7,-6.2 4,-12.7 4,-19.7l0,-153l51,0l0,153l-0.1,0z" id="svg_17" fill="#4527a0"/>
    <path d="m1047.99999,357.00133l-51,0l0,-254.7l102,0c9.4,0 18.4,1.2 27,3.6c8.6,2.4 16.7,5.9 24.2,10.3c7.5,4.4 14.40001,9.8 20.6,16c6.2,6.2 11.5,13.1 16,20.7c4.4,7.6 7.9,15.7 10.3,24.3c2.4,8.6 3.6,17.6 3.6,27c0,8.8 -1.1,17.3 -3.3,25.6c-2.2,8.3 -5.3,16.2 -9.4,23.6c-4.1,7.5 -9.1,14.3 -15,20.6c-5.9,6.3 -12.6,11.7 -19.9,16.3l28.2,66.6l-54.2,0l-22.2,-51.3l-57,0.4l0,51l0.1,0zm0,-203.8l0,102l51,0c7,0 13.6,-1.3 19.7,-4c6.2,-2.7 11.5,-6.3 16.2,-10.9s8.3,-10 10.90001,-16.3c2.7,-6.2 4,-12.8 4,-19.8c0,-7 -1.3,-13.6 -4,-19.8c-2.7,-6.2 -6.3,-11.6 -10.90001,-16.3c-4.59999,-4.6 -10,-8.3 -16.2,-10.9c-6.2,-2.7 -12.7,-4 -19.7,-4l-51,0z" id="svg_18" fill="#4527a0"/>
    <path d="m1348.8,357.00133l-50.8,0l0,-79.8c-11.3,-2.8 -21.6,-7.4 -31,-13.7c-9.4,-6.3 -17.5,-13.8 -24.2,-22.5c-6.8,-8.7 -12,-18.4 -15.7,-29c-3.70001,-10.6 -5.6,-21.8 -5.6,-33.5l0,-76.4l51,0l0,76.4c0,7 1.3,13.6 4,19.8c2.7,6.2 6.3,11.6 10.9,16.3c4.6,4.6 10,8.3 16.3,10.9c6.2,2.7 12.8,4 19.8,4c7,0 13.6,-1.3 19.8,-4c6.2,-2.7 11.59999,-6.3 16.3,-10.9c4.59999,-4.6 8.29999,-10 10.9,-16.3c2.7,-6.2 4,-12.8 4,-19.8l0,-76.4l50.8,0l0,76.4c0,11.7 -1.90001,22.9 -5.6,33.5c-3.7,10.6 -9,20.3 -15.7,29c-6.8,8.7 -14.8,16.2 -24.2,22.5c-9.40001,6.3 -19.7,10.8 -30.90001,13.7l0,79.8l-0.09999,0z" id="svg_19" fill="#4527a0"/>
   </g>
  </g>
 </g>
</svg>