<svg width="1500" height="450" xmlns="http://www.w3.org/2000/svg">

 <g>
  <title>background</title>
  <rect fill="none" id="canvas_background" height="452" width="1502" y="-1" x="-1"/>
 </g>
 <g>
  <title>Layer 1</title>
  <g id="svg_1">
   <g id="svg_2">
    <g id="svg_3">
     <path fill="#ffffff" id="svg_4" d="m274.799995,63.601326l108.2,62.5c2.8,1.6 5.8,2.4 8.8,2.4c6.1,0 12,-3.2 15.3,-8.8c4.9,-8.4 2,-19.2 -6.5,-24.1l-105.5,-60.9c-6.8,-4.4 -16,-3.6 -22,2.4c-6.9,6.9 -6.9,18 0,24.9l1.7,1.6z"/>
     <path fill="#ffffff" id="svg_5" d="m186.199995,59.901326l222.2,128.3c2.8,1.6 5.8,2.4 8.8,2.4c6.1,0 12,-3.2 15.3,-8.8c4.9,-8.4 2,-19.2 -6.4,-24.1l-222.2,-128.3c-8.4,-4.9 -19.2,-2 -24.1,6.4c-4.9,8.4 -2,19.2 6.4,24.1z"/>
     <path fill="#ffffff" id="svg_6" d="m437.099995,231.801326c-3.3,5.7 -9.2,8.8 -15.3,8.8c-3,0 -6,-0.8 -8.8,-2.4l-76.5,-44.1c1.4,-6.3 -1.3,-13.1 -7.2,-16.5l-156.5,-90.4c-5.9,-3.4 -13.1,-2.4 -17.9,2l-50.9,-29.3c-8.4,-4.9 -11.3,-15.6 -6.5,-24.1c4.9,-8.4 15.6,-11.3 24.1,-6.4l309,178.3c8.4,4.8 11.3,15.6 6.5,24.1z"/>
     <path fill="#ffffff" id="svg_7" d="m432.999995,276.801326c-3.3,5.7 -9.2,8.8 -15.3,8.8c-3,0 -6,-0.8 -8.8,-2.4l-106.3,-61.4c1.2,-5.6 -1.3,-11.5 -6.5,-14.5l-98.2,-56.7c-5.2,-3 -11.6,-2.2 -15.8,1.7l-94.4,-54.5c-8.4,-4.9 -11.3,-15.6 -6.4,-24.1c4.9,-8.4 15.6,-11.3 24.1,-6.4l46.2,26.7c-3.3,7.1 -0.7,15.6 6.2,19.5l156.5,90.4c2.4,1.4 5,2 7.6,2c4.8,0 9.5,-2.3 12.4,-6.5l92.4,53.3c8.2,4.9 11.1,15.7 6.3,24.1z"/>
     <path fill="#ffffff" id="svg_8" d="m420.499995,317.001326c-1.2,2.1 -2.7,3.8 -4.5,5.1l-218,-127.5c-6.1,-3.6 -13.9,-1.8 -17.9,3.9l-92.4,-53.3c-8.4,-4.9 -11.3,-15.6 -6.4,-24.1c4.9,-8.4 15.6,-11.3 24.1,-6.4l73.4,42.4c-2.7,6.2 -0.3,13.6 5.7,17l98.2,56.7c2.1,1.2 4.5,1.8 6.8,1.8c4.2,0 8.2,-1.9 10.8,-5.4l113.7,65.7c8.4,4.9 11.3,15.7 6.5,24.1z"/>
     <path fill="#ffffff" id="svg_9" d="m401.399995,345.001326c-0.2,2.4 -1,4.9 -2.3,7.1c-3.3,5.7 -9.2,8.8 -15.3,8.8c-3,0 -6,-0.8 -8.8,-2.4l-72.6,-41.9c1.4,-5.7 -1,-11.9 -6.4,-15l-98.1,-56.6c-5.3,-3.1 -11.9,-2.1 -16.1,2l-94.1,-54.3c-8.4,-4.9 -11.3,-15.6 -6.4,-24.1c4.9,-8.4 15.6,-11.3 24.1,-6.4l72.5,41.8c-1,5.4 1.5,11.1 6.5,14l217,127z"/>
     <path fill="#ffffff" id="svg_10" d="m370.999995,373.701326c-0.3,9.6 -8.5,17 -18.1,17l0,0c-2.8,0 -5.5,-0.7 -7.9,-2.1l-31.4,-18.1c1.6,-6.4 -1.2,-13.3 -7.1,-16.8l-153,-88.3c-6,-3.4 -13.3,-2.4 -18,2.1l-47.8,-27.6c-8.4,-4.9 -11.3,-15.6 -6.4,-24.1c4.9,-8.4 15.6,-11.3 24.1,-6.4l73.2,42.3c-2.4,6.1 0,13.3 5.8,16.7l98.2,56.7c2.1,1.2 4.5,1.8 6.8,1.8c4,0 8,-1.8 10.6,-5.1l61.5,35.5c5.7,3.1 9.7,9.3 9.5,16.4z"/>
     <path fill="#ffffff" id="svg_11" d="m326.999995,405.301326c-3.3,5.7 -9.2,8.8 -15.3,8.8c-3,0 -6,-0.8 -8.8,-2.4l-215.2,-124.2c-8.4,-4.9 -11.3,-15.6 -6.4,-24.1c4.9,-8.4 15.6,-11.3 24.1,-6.4l26.7,15.4c-3.2,7 -0.5,15.4 6.3,19.3l153,88.3c2.4,1.4 5,2 7.6,2c4.7,0 9.3,-2.2 12.3,-6.2l9.5,5.5c8.2,4.8 11,15.6 6.2,24z"/>
     <path fill="#ffffff" id="svg_12" d="m261.899995,394.901326l-156.7,-90.5c-8.4,-4.9 -19.2,-2 -24.1,6.4c-4.9,8.4 -2,19.2 6.4,24.1l156.7,90.5c2.8,1.6 5.8,2.4 8.8,2.4c6.1,0 12,-3.2 15.3,-8.8c5,-8.5 2.1,-19.3 -6.4,-24.1z"/>
     <path fill="#ffffff" id="svg_13" d="m181.999995,396.101326l-76.7,-44.3c-8.4,-4.9 -19.2,-2 -24.1,6.4c-4.9,8.4 -2,19.2 6.4,24.1l76.7,44.3c2.8,1.6 5.8,2.4 8.8,2.4c6.1,0 12,-3.2 15.3,-8.8c4.9,-8.4 2,-19.2 -6.4,-24.1z"/>
     <path fill="#ffffff" id="svg_14" d="m506.199995,389.801326c-3,5.1 -8.3,8 -13.9,8c-2.7,0 -5.5,-0.7 -8,-2.2l-70.1,-40.7c-2.8,-1.6 -5,-4 -6.3,-6.7c1.7,0.8 3.6,1.1 5.4,1.1c4.7,0 9.2,-2.4 11.7,-6.7c3.5,-6 1.9,-13.5 -3.4,-17.6c2.9,-0.1 6,0.6 8.7,2.1l70.1,40.7c7.6,4.5 10.2,14.3 5.8,22z"/>
    </g>
   </g>
   <g id="svg_15">
    <path fill="#ffffff" id="svg_16" d="m707.499995,255.201326c0,14.1 -2.7,27.3 -8,39.7c-5.3,12.4 -12.6,23.2 -21.8,32.3c-9.2,9.2 -20,16.4 -32.3,21.8c-12.4,5.3 -25.6,8 -39.7,8c-8.5,0 -17.1,-1.1 -25.6,-3.2l0,-54.7c3.8,2.3 7.9,4 12.3,5.2c4.4,1.2 8.8,1.8 13.3,1.8c7,0 13.6,-1.3 19.8,-4c6.2,-2.7 11.6,-6.3 16.3,-10.9c4.6,-4.6 8.3,-10 10.9,-16.2c2.7,-6.2 4,-12.7 4,-19.7l0,-153l50.8,0l0,152.9z"/>
    <path fill="#ffffff" id="svg_17" d="m952.799995,255.201326c0,14.1 -2.7,27.3 -8,39.7c-5.3,12.4 -12.6,23.2 -21.8,32.3c-9.2,9.2 -20,16.4 -32.4,21.8c-12.4,5.3 -25.6,8 -39.7,8c-14.1,0 -27.3,-2.7 -39.7,-8c-12.4,-5.3 -23.2,-12.6 -32.3,-21.8c-9.2,-9.2 -16.4,-20 -21.8,-32.3c-5.3,-12.4 -8,-25.6 -8,-39.7l0,-153l50.8,0l0,153c0,7 1.3,13.6 4,19.7c2.7,6.2 6.3,11.5 10.9,16.2c4.6,4.6 10,8.3 16.3,10.9c6.2,2.7 12.8,4 19.8,4c7,0 13.6,-1.3 19.8,-4c6.2,-2.7 11.6,-6.3 16.3,-10.9c4.6,-4.6 8.3,-10 10.9,-16.2c2.7,-6.2 4,-12.7 4,-19.7l0,-153l51,0l0,153l-0.1,0z"/>
    <path fill="#ffffff" id="svg_18" d="m1047.999995,357.001326l-51,0l0,-254.7l102,0c9.4,0 18.4,1.2 27,3.6c8.6,2.4 16.7,5.9 24.2,10.3c7.5,4.4 14.4,9.8 20.6,16c6.2,6.2 11.5,13.1 16,20.7c4.4,7.6 7.9,15.7 10.3,24.3c2.4,8.6 3.6,17.6 3.6,27c0,8.8 -1.1,17.3 -3.3,25.6c-2.2,8.3 -5.3,16.2 -9.4,23.6c-4.1,7.5 -9.1,14.3 -15,20.6c-5.9,6.3 -12.6,11.7 -19.9,16.3l28.2,66.6l-54.2,0l-22.2,-51.3l-57,0.4l0,51l0.1,0zm0,-203.8l0,102l51,0c7,0 13.6,-1.3 19.7,-4c6.2,-2.7 11.5,-6.3 16.2,-10.9s8.3,-10 10.9,-16.3c2.7,-6.2 4,-12.8 4,-19.8c0,-7 -1.3,-13.6 -4,-19.8c-2.7,-6.2 -6.3,-11.6 -10.9,-16.3c-4.6,-4.6 -10,-8.3 -16.2,-10.9c-6.2,-2.7 -12.7,-4 -19.7,-4l-51,0z"/>
    <path fill="#ffffff" id="svg_19" d="m1348.799995,357.001326l-50.8,0l0,-79.8c-11.3,-2.8 -21.6,-7.4 -31,-13.7c-9.4,-6.3 -17.5,-13.8 -24.2,-22.5c-6.8,-8.7 -12,-18.4 -15.7,-29c-3.7,-10.6 -5.6,-21.8 -5.6,-33.5l0,-76.4l51,0l0,76.4c0,7 1.3,13.6 4,19.8c2.7,6.2 6.3,11.6 10.9,16.3c4.6,4.6 10,8.3 16.3,10.9c6.2,2.7 12.8,4 19.8,4c7,0 13.6,-1.3 19.8,-4c6.2,-2.7 11.6,-6.3 16.3,-10.9c4.6,-4.6 8.3,-10 10.9,-16.3c2.7,-6.2 4,-12.8 4,-19.8l0,-76.4l50.8,0l0,76.4c0,11.7 -1.9,22.9 -5.6,33.5c-3.7,10.6 -9,20.3 -15.7,29c-6.8,8.7 -14.8,16.2 -24.2,22.5c-9.4,6.3 -19.7,10.8 -30.9,13.7l0,79.8l-0.1,0z"/>
   </g>
  </g>
 </g>
</svg>