<svg width="450" height="450" xmlns="http://www.w3.org/2000/svg">
 <g>
  <title>background</title>
  <rect fill="none" id="canvas_background" height="452" width="452" y="-1" x="-1"/>
 </g>

 <g>
  <title>Layer 1</title>
  <g id="svg_1">
   <g id="svg_2">
    <g id="svg_3">
     <path fill="#4527a0" id="svg_4" d="m207.8,61.60133l108.2,62.5c2.8,1.6 5.8,2.4 8.8,2.4c6.1,0 12,-3.2 15.3,-8.8c4.9,-8.4 2,-19.2 -6.5,-24.1l-105.5,-60.9c-6.8,-4.4 -16,-3.6 -22,2.4c-6.9,6.9 -6.9,18 0,24.9l1.7,1.6z"/>
     <path fill="#4527a0" id="svg_5" d="m119.2,57.90133l222.19999,128.3c2.80001,1.6 5.80001,2.4 8.80001,2.4c6.1,0 12,-3.2 15.3,-8.8c4.89999,-8.4 2,-19.2 -6.4,-24.1l-222.2,-128.3c-8.4,-4.9 -19.2,-2 -24.1,6.4c-4.9,8.4 -2,19.2 6.4,24.1z"/>
     <path fill="#4527a0" id="svg_6" d="m370.09999,229.80133c-3.3,5.7 -9.2,8.8 -15.3,8.8c-3,0 -6,-0.8 -8.8,-2.4l-76.5,-44.1c1.4,-6.3 -1.3,-13.1 -7.2,-16.5l-156.5,-90.4c-5.9,-3.4 -13.1,-2.4 -17.9,2l-50.9,-29.3c-8.4,-4.9 -11.3,-15.6 -6.5,-24.1c4.9,-8.4 15.6,-11.3 24.1,-6.4l309,178.3c8.4,4.8 11.3,15.6 6.5,24.1z"/>
     <path fill="#4527a0" id="svg_7" d="m366,274.80133c-3.3,5.7 -9.2,8.8 -15.3,8.8c-3,0 -6,-0.8 -8.80001,-2.4l-106.3,-61.4c1.2,-5.6 -1.3,-11.5 -6.5,-14.5l-98.2,-56.7c-5.19999,-3 -11.6,-2.2 -15.8,1.7l-94.4,-54.5c-8.4,-4.9 -11.3,-15.6 -6.4,-24.1c4.9,-8.4 15.6,-11.3 24.1,-6.4l46.2,26.7c-3.3,7.1 -0.7,15.6 6.2,19.5l156.5,90.4c2.4,1.4 5,2 7.6,2c4.80001,0 9.5,-2.3 12.4,-6.5l92.4,53.3c8.2,4.9 11.1,15.7 6.3,24.1l0.00001,0z"/>
     <path fill="#4527a0" id="svg_8" d="m353.5,315.00133c-1.2,2.1 -2.7,3.8 -4.5,5.1l-218,-127.5c-6.1,-3.6 -13.9,-1.8 -17.9,3.9l-92.4,-53.3c-8.40001,-4.9 -11.3,-15.6 -6.40001,-24.1c4.90001,-8.4 15.6,-11.3 24.1,-6.4l73.4,42.4c-2.69999,6.2 -0.3,13.6 5.7,17l98.20001,56.7c2.1,1.2 4.5,1.8 6.8,1.8c4.2,0 8.2,-1.9 10.8,-5.4l113.7,65.7c8.39999,4.9 11.3,15.7 6.5,24.1z"/>
     <path fill="#4527a0" id="svg_9" d="m334.39999,343.00133c-0.19999,2.4 -1,4.9 -2.3,7.1c-3.3,5.7 -9.2,8.8 -15.3,8.8c-3,0 -6,-0.8 -8.8,-2.4l-72.6,-41.9c1.4,-5.7 -1,-11.9 -6.39999,-15l-98.1,-56.6c-5.3,-3.1 -11.9,-2.1 -16.1,2l-94.1,-54.3c-8.4,-4.9 -11.3,-15.6 -6.4,-24.1c4.9,-8.4 15.6,-11.3 24.1,-6.4l72.5,41.8c-1,5.4 1.5,11.1 6.5,14l216.99999,127z"/>
     <path fill="#4527a0" id="svg_10" d="m304,371.70133c-0.3,9.6 -8.5,17 -18.10001,17l0,0c-2.8,0 -5.5,-0.7 -7.89999,-2.1l-31.4,-18.1c1.6,-6.4 -1.2,-13.3 -7.1,-16.8l-153,-88.3c-6,-3.4 -13.3,-2.4 -18,2.1l-47.8,-27.6c-8.4,-4.9 -11.3,-15.6 -6.4,-24.1c4.9,-8.4 15.6,-11.3 24.1,-6.4l73.2,42.3c-2.4,6.1 0,13.3 5.8,16.7l98.2,56.7c2.1,1.2 4.5,1.8 6.8,1.8c4,0 8,-1.8 10.6,-5.1l61.5,35.5c5.7,3.1 9.7,9.3 9.5,16.4z"/>
     <path fill="#4527a0" id="svg_11" d="m260,403.30133c-3.3,5.7 -9.2,8.8 -15.3,8.8c-3,0 -6,-0.8 -8.80001,-2.4l-215.19999,-124.2c-8.40001,-4.9 -11.3,-15.6 -6.40001,-24.1c4.90001,-8.4 15.6,-11.3 24.1,-6.4l26.7,15.4c-3.2,7 -0.5,15.4 6.3,19.3l153,88.3c2.4,1.4 5,2 7.60001,2c4.7,0 9.3,-2.2 12.3,-6.2l9.5,5.5c8.2,4.8 11,15.6 6.2,24z"/>
     <path fill="#4527a0" id="svg_12" d="m194.89999,392.90133l-156.69999,-90.5c-8.40001,-4.9 -19.20001,-2 -24.1,6.4c-4.9,8.4 -2,19.2 6.4,24.1l156.7,90.5c2.8,1.6 5.8,2.4 8.8,2.4c6.1,0 12,-3.2 15.3,-8.8c5,-8.5 2.1,-19.3 -6.4,-24.1l-0.00001,0z"/>
     <path fill="#4527a0" id="svg_13" d="m115,394.10133l-76.7,-44.3c-8.4,-4.9 -19.2,-2 -24.1,6.4c-4.90001,8.4 -2,19.2 6.4,24.1l76.7,44.3c2.8,1.6 5.8,2.4 8.8,2.4c6.1,0 12,-3.2 15.3,-8.8c4.9,-8.4 2,-19.2 -6.4,-24.1z"/>
     <path fill="#4527a0" id="svg_14" d="m439.2,387.80133c-3,5.1 -8.30001,8 -13.9,8c-2.7,0 -5.5,-0.7 -8,-2.2l-70.1,-40.7c-2.8,-1.6 -5,-4 -6.3,-6.7c1.7,0.8 3.6,1.1 5.4,1.1c4.7,0 9.2,-2.4 11.7,-6.7c3.5,-6 1.89999,-13.5 -3.4,-17.6c2.9,-0.1 6,0.6 8.7,2.1l70.09999,40.7c7.60001,4.5 10.2,14.3 5.80001,22z"/>
    </g>
   </g>
  </g>
 </g>
</svg>